<svg version="1.0" xmlns="http://www.w3.org/2000/svg" width="500" height="500"><path d="M32 245h437v10H32z"/><path d="M245 32h10v437h-10z"/><path d="M58.305 354.948L436.918 136.35l4.765 8.253L63.07 363.2z"/><path d="M144.616 58.901l218.599 378.613-8.253 4.765L136.363 63.666z"/><path d="M136.161 436.821L354.76 58.208l8.254 4.766-218.599 378.613z"/><path d="M62.882 137.274l378.613 218.599-4.765 8.253-378.613-218.6z"/><path d="M250 .131C112.002.131.131 112.002.131 250 .131 387.999 112.002 499.869 250 499.869c137.999 0 249.869-111.87 249.869-249.869C499.869 112.002 387.999.131 250 .131zm0 490.805C116.936 490.936 9.065 383.064 9.065 250S116.936 9.065 250 9.065 490.936 116.936 490.936 250 383.064 490.936 250 490.936z"/><path d="M250 24.552C125.489 24.552 24.552 125.489 24.552 250c0 124.512 100.938 225.448 225.448 225.448 124.512 0 225.448-100.937 225.448-225.448 0-124.511-100.936-225.448-225.448-225.448zm0 440.77C131.081 465.322 34.678 368.92 34.678 250c0-118.919 96.403-215.322 215.322-215.322S465.322 131.081 465.322 250c0 118.92-96.403 215.322-215.322 215.322z"/><circle cx="250" cy="250" r="196.262"/><path fill="#FFF" d="M250 191.33c-32.402 0-58.67 26.268-58.67 58.67 0 32.403 26.268 58.67 58.67 58.67 32.403 0 58.67-26.267 58.67-58.67 0-32.402-26.267-58.67-58.67-58.67zm15.784 20.848a8.339 8.339 0 110 16.678 8.339 8.339 0 010-16.678zm-28.59 0a8.339 8.339 0 110 16.678 8.339 8.339 0 010-16.678zm12.831 87.523c-24.854 0-45.396-18.559-48.815-42.498l97.655.242c-3.341 23.826-23.921 42.256-48.84 42.256zM176.45 126.489c.514-6.947 1.304-11.894 2.373-14.841 1.422-4.027 3.705-7.321 6.852-9.882 3.711-3.02 8.104-4.713 13.177-5.083 5.075-.369 9.659 1.962 13.752 6.991 2.858 3.512 4.503 6.761 4.937 9.747.433 2.987-.126 6.126-1.678 9.417-1.551 3.291-3.671 6.029-6.356 8.214-3.146 2.561-6.821 4.143-11.028 4.747-3.127.418-8.145.17-15.052-.737-.665 9-3.701 15.701-9.107 20.101-3.57 2.905-7.562 4.261-11.977 4.069-4.416-.191-8.004-1.984-10.764-5.378-2.737-3.362-3.758-7.231-3.061-11.609.697-4.377 2.83-8.018 6.4-10.923 5.407-4.399 12.584-6.01 21.532-4.833zm-.17 7.263c-5.25-.675-9.067-.747-11.454-.215s-4.357 1.431-5.912 2.696c-2.05 1.668-3.258 3.667-3.626 5.994-.367 2.329.321 4.562 2.065 6.706 1.719 2.112 3.799 3.226 6.243 3.341 2.442.114 4.672-.647 6.686-2.287 3.57-2.904 5.569-8.317 5.998-16.235zm7.28-5.997c6.344 1.516 11.394 1.982 15.149 1.399 2.425-.34 4.645-1.33 6.659-2.969 2.686-2.186 4.26-4.853 4.725-8.002.464-3.146-.54-6.238-3.011-9.274-2.566-3.154-5.456-4.81-8.668-4.968-3.211-.155-6.196.887-8.952 3.13a12.881 12.881 0 00-3.86 5.218c-1.106 2.83-1.787 7.984-2.042 15.466zM114.739 270.428l-11.876-43.279-3.423-18.391 14.983-2.788 3.423 18.391 4.688 44.616-7.795 1.451z"/><circle fill="#FFF" cx="122.832" cy="285.44" r="8.935"/><path fill="#FFF" d="M229.853 363.582l-18.125-5.602 5.6-18.125-19.333-5.974-5.601 18.124-18.125-5.601-5.974 19.334 18.124 5.602-5.601 18.125 19.333 5.973 5.602-18.125 18.125 5.602zM346.507 335.474l-1.892-30.973-4.241.05 1.306 33.905S344.704 343 348.328 349h-33.126c3.632-6 6.663-10.544 6.663-10.544l1.696-33.8-4.17-.028-1.787 30.909s-22.038 31.879-19.655 40.219c2.382 8.338 19.06 9.244 24.421 9.244H341.845c5.36 0 21.986-.938 24.368-9.276 2.384-8.339-19.706-40.25-19.706-40.25zm13.926 38.441c-1.7 5.949-19.491 5.085-23.316 5.085h-5.216-5.558c-3.825 0-21.574.864-23.274-5.085-.914-3.199 4.59-13.485 9.874-22.029l37.801.412c5.221 8.484 10.594 18.45 9.689 21.617z"/><g fill="#FFF"><path d="M412.906 203.839l-8.735-19.061-19.457 9.927-12.228 56.517-7.249-2.187-2.165 12.68 6.108 1.836-7.562 21.822 16.452 5.7 7.694-22.201-4.579-1.587-6.027 17.391-7.294-2.527 5.961-17.202 4.656 1.401.812.281-.811-.281 13.974 4.202 4.936-11.815-6.597-1.989 22.111-52.907zm-24.022-6.155l12.508-5.956 6.354 12.706-22.247 50.713-9.389-2.831 12.774-54.632zm.893 67.74l-21.94-6.688.797-4.45 23.024 6.945-1.881 4.193z"/><path d="M386.698 244.938l13.105-41.298-1.389-2.58-2.781 1.587-13.699 40.703 1.191 3.175z"/></g><path fill="#FFF" d="M307.833 106.029a8.56 8.56 0 012.138.256c7.086 1.828 16.627 7.198 19.333 8.926s11.703 7.695 17.476 15.205c5.775 7.511-1.338 28.554-2.28 33.137-.82 3.991-3.496 12.217-8.873 12.217-.797 0-1.655-.181-2.573-.583-6.327-2.772-2.525-19.511-6.164-25.035-3.643-5.524-9.126-10.529-11.592-12.206-2.467-1.677-9.173-4.438-15.683-5.622a6.597 6.597 0 00-1.168-.097c-5.475 0-14.606 5.515-20.498 5.515-1.513 0-2.812-.363-3.78-1.275-5.656-5.322 2.366-12.428 6.213-15.091 3.562-2.468 18.046-15.347 27.451-15.347m0-4.734c-9.409 0-21.257 9.274-27.621 14.257-1.086.851-2.022 1.583-2.525 1.932-2.896 2.004-9.683 7.383-10.181 14.043-.237 3.16.945 6.061 3.418 8.387 1.806 1.7 4.17 2.562 7.024 2.562 3.851 0 8.126-1.591 12.261-3.13 3.001-1.118 6.403-2.385 8.237-2.385.185 0 .286.016.32.022 6.376 1.158 12.269 3.792 13.868 4.878 1.97 1.34 7.013 5.911 10.301 10.897.83 1.26 1.04 5.796 1.18 8.797.331 7.122.707 15.194 7.038 17.968 1.486.651 2.992.98 4.473.98 2.398 0 10.461-1.153 13.511-15.998.123-.597.429-1.746.786-3.075 3.575-13.369 6.124-26.729.61-33.899-5.97-7.765-15.055-13.992-18.685-16.31-2.318-1.481-12.632-7.439-20.696-9.521a13.389 13.389 0 00-3.319-.405z"/><circle fill="#FFF" cx="307.8" cy="120.685" r="5.523"/><circle fill="#FFF" cx="330.288" cy="136.071" r="5.524"/></svg>