<?xml version="1.0" encoding="UTF-8" standalone="no"?>
<svg
   xmlns:dc="http://purl.org/dc/elements/1.1/"
   xmlns:cc="http://creativecommons.org/ns#"
   xmlns:rdf="http://www.w3.org/1999/02/22-rdf-syntax-ns#"
   xmlns:svg="http://www.w3.org/2000/svg"
   xmlns="http://www.w3.org/2000/svg"
   xmlns:sodipodi="http://sodipodi.sourceforge.net/DTD/sodipodi-0.dtd"
   xmlns:inkscape="http://www.inkscape.org/namespaces/inkscape"
   viewBox="0 0 610.37748 610.37751"
   version="1.1"
   id="svg10"
   sodipodi:docname="logo.svg"
   width="610.3775"
   height="610.3775"
   inkscape:version="0.92.3 (2405546, 2018-03-11)">
  <metadata
     id="metadata16">
    <rdf:RDF>
      <cc:Work
         rdf:about="">
        <dc:format>image/svg+xml</dc:format>
        <dc:type
           rdf:resource="http://purl.org/dc/dcmitype/StillImage" />
      </cc:Work>
    </rdf:RDF>
  </metadata>
  <defs
     id="defs14" />
  <sodipodi:namedview
     pagecolor="#ffffff"
     bordercolor="#666666"
     borderopacity="1"
     objecttolerance="10"
     gridtolerance="10"
     guidetolerance="10"
     inkscape:pageopacity="0"
     inkscape:pageshadow="2"
     inkscape:window-width="1920"
     inkscape:window-height="1030"
     id="namedview12"
     showgrid="false"
     inkscape:zoom="0.76018527"
     inkscape:cx="-95.264536"
     inkscape:cy="228.46324"
     inkscape:window-x="0"
     inkscape:window-y="24"
     inkscape:window-maximized="1"
     inkscape:current-layer="svg10" />
  <circle
     style="fill:#68b723"
     id="path18"
     cx="305.18875"
     cy="305.18875"
     r="305.18875" />
  <path
     style="fill:#000000"
     id="path40"
     d="m 248.6236,151.3796 c 0.005,6.62133 0.0618,13.23962 -0.17178,19.85725 -0.49176,9.84056 -2.12095,19.57521 -2.97855,29.38954 -0.5637,7.87066 -1.34422,15.72026 -1.78463,23.60007 -0.16682,3.65734 -0.0954,1.89397 -0.21798,5.28994 0,0 -39.43786,-1.43788 -39.43786,-1.43788 v 0 c 0.14366,-3.90657 0.0603,-1.88255 0.25425,-6.07189 0.47059,-8.29555 1.26886,-16.56152 1.87472,-24.84694 0.81435,-9.16325 2.24791,-18.26054 2.85485,-27.4319 0.26019,-6.11243 0.10344,-12.23133 0.14292,-18.34819 0,0 39.46406,0 39.46406,0 z"
     inkscape:connector-curvature="0" />
  <path
     style="fill:#000000"
     id="path42"
     d="m 415.68814,164.69164 c -0.0128,9.27242 0.16485,18.53846 -0.35231,27.79821 -0.61563,8.99857 -1.99365,17.91582 -2.87044,26.88732 -0.34038,5.35086 -0.67151,10.64617 -1.62152,15.92769 0,0 -38.66714,-7.89079 -38.66714,-7.89079 v 0 c 0.9354,-1.32764 0.34439,-9.93186 1.01544,-11.91328 0.84493,-8.49108 2.09882,-16.93542 2.7548,-25.44606 0.60363,-8.43646 0.13253,-16.91035 0.2771,-25.36309 0,0 39.46407,0 39.46407,0 z"
     inkscape:connector-curvature="0" />
  <path
     style="fill:#000000"
     id="path44"
     d="m 257.83188,350.01539 c 0,8.09893 0,16.19786 0,24.29679 0.0886,6.17705 -0.26354,12.39252 0.47714,18.5456 0.18458,1.53337 1.02121,5.62727 1.30341,7.06181 1.27524,4.99671 2.75979,10.162 5.31922,14.67951 1.71184,3.1125 4.6247,5.02174 7.53142,6.91271 7.29141,3.78817 14.81108,7.00957 22.6044,9.59821 10.59846,3.41922 21.72039,4.42787 32.76766,5.18528 4.75949,0.14203 9.53508,0.56732 14.30112,0.46518 1.94026,-0.0416 4.40512,-0.0975 6.05446,-1.20843 4.65292,-2.47922 8.72732,-5.72401 12.40357,-9.47362 0.59892,-0.64129 4.05425,-4.31543 4.59006,-4.99256 0.24611,-0.31103 0.34061,-0.71807 0.54778,-1.05629 1.80937,-2.95391 3.55013,-5.86533 5.20388,-8.91575 4.04806,-6.98613 7.60502,-14.24015 10.9037,-21.60546 1.33364,-3.28886 2.62357,-6.59614 3.89329,-9.91052 0,0 36.84193,14.14512 36.84193,14.14512 v 0 c -1.53444,3.98935 -3.07011,7.9802 -4.72891,11.91958 -3.72253,8.28492 -7.71717,16.45641 -12.25428,24.32965 -4.77816,8.73897 -9.92362,17.29538 -17.26692,24.16523 -8.20682,7.97166 -17.29826,14.89852 -28.10706,18.98135 -2.41752,0.67697 -4.7984,1.50192 -7.25255,2.03089 -9.14174,1.97042 -18.64873,0.70136 -27.87767,0.49393 -14.39865,-1.01983 -28.84377,-2.58734 -42.61914,-7.15471 -11.20131,-3.81216 -22.15352,-8.39221 -32.34203,-14.46273 -8.41266,-5.91454 -15.44079,-12.06696 -20.25951,-21.33982 -4.01557,-8.02835 -7.18166,-16.50898 -9.00515,-25.31728 -0.84496,-4.44879 -1.39783,-6.9415 -1.90719,-11.59278 -0.7813,-7.13445 -0.54617,-14.32394 -0.58669,-21.4841 0,-8.09893 0,-16.19786 0,-24.29679 0,0 39.46406,0 39.46406,0 z"
     inkscape:connector-curvature="0" />
</svg>
